<svg id="Layer_1" data-name="Layer 1" xmlns="http://www.w3.org/2000/svg" viewBox="0 0 147 35.35"><g id="logo_heifer"><path d="M59.5,36.09c1.37-1.24,1.27-2.75,1.26-4.27,0-3.84,0-7.69,0-11.53,0-2.12,0-2.12-1.08-3.77H65c-1.29,1.06-1.27,2.44-1.26,3.84s0,2.84,0,4.27c0,.48.14.63.62.63,2.88,0,5.76,0,8.63,0,.5,0,.63-.15.62-.63,0-1.88,0-3.76,0-5.64a3.34,3.34,0,0,0-1.16-2.46h5.41c-1.31,1.21-1.21,2.73-1.2,4.24,0,3.9,0,7.8,0,11.7A4.37,4.37,0,0,0,78,36.08H72.39c1.39-1.12,1.26-2.58,1.24-4s0-2.91,0-4.36c0-.56-.09-.78-.72-.77-2.82,0-5.64,0-8.46,0-.4,0-.7,0-.69.55,0,1.91,0,3.82,0,5.72a3.63,3.63,0,0,0,1.15,2.89Z" transform="translate(-2 -11.74)" style="fill:#2d4355"/><path d="M17.43,40.21A7.06,7.06,0,0,0,18.8,39c4-3.48,8.37-6.21,13.65-7.17a28.26,28.26,0,0,1,14.84,1.51,43.23,43.23,0,0,1,5.25,2.22c1.13.6,1.26.84.89,1.56a1.54,1.54,0,0,1-2.22.72c-1.55-.83-3.05-1.77-4.66-2.48A22.11,22.11,0,0,0,31.17,34c-3.79,1.07-6.92,3.35-9.89,5.86a25.28,25.28,0,0,0-5.75,6.7c-.42.72-.86.67-1.46.29-1.21-.77-1.4-1.19-.92-2.53a55.75,55.75,0,0,1,4.42-9.58,17.45,17.45,0,0,0,.89-2.2c.1-.22.14-.6.44-.54s.26.45.25.72a13.29,13.29,0,0,1-.55,2.93c-.41,1.39-.83,2.77-1.24,4.16A.35.35,0,0,0,17.43,40.21Zm-.06.14s0-.06-.05-.05a.31.31,0,0,0-.12.05s0,0,.06,0Z" transform="translate(-2 -11.74)" style="fill:#2d4456"/><path d="M149,35.89A6.44,6.44,0,0,1,142.39,33c-1.53-2-3.15-4-4.8-6.1.65-.17,1.19-.28,1.7-.46a3.24,3.24,0,0,0,2.15-2.14,3,3,0,0,0-2.75-4.21c-.76-.08-1.53,0-2.3-.08-.43,0-.6.1-.59.56,0,4.33,0,8.66,0,13a3.2,3.2,0,0,0,1,2.37h-5a4.43,4.43,0,0,0,1.1-3.57c0-3.48,0-6.95,0-10.42a4.29,4.29,0,0,0-1.31-3.6c3.21.21,6.2-.31,9.14.4a5,5,0,0,1,3.28,2.12,4.21,4.21,0,0,1-1.74,5.91c-.32.18-.66.34-1,.51A49.74,49.74,0,0,0,149,35.89Z" transform="translate(-2 -11.74)" style="fill:#2d4456"/><path d="M117.18,36.14a4.34,4.34,0,0,0,1.22-3.42c0-3.68,0-7.35,0-11a3.93,3.93,0,0,0-1.24-3.31h1.42c3.2,0,6.39,0,9.58,0,.56,0,.74.15.7.71s0,1.31,0,2.08c-2.24-1.9-4.84-.79-7.25-1.09-.32,0-.45.1-.45.44,0,1.45,0,2.91,0,4.36,0,.27.1.44.39.43a34.4,34.4,0,0,0,5.37-.18,6.4,6.4,0,0,0,1.38-.57v3.06c-2.11-1.13-4.38-.56-6.58-.71-.48,0-.57.18-.56.6,0,2.11,0,4.22,0,6.32,0,.47.1.65.6.64,1.63,0,3.25,0,4.87,0a6.78,6.78,0,0,0,2.76-1c-.16.84-.31,1.59-.44,2.34-.07.39-.33.39-.63.39Z" transform="translate(-2 -11.74)" style="fill:#2d4355"/><path d="M92.79,33.47c-.16.85-.28,1.55-.41,2.24a.45.45,0,0,1-.52.43H80.59a4.58,4.58,0,0,0,1.23-3.8c0-3.47,0-7,0-10.42a4.23,4.23,0,0,0-1.21-3.53h5.7c1.79,0,3.59,0,5.38,0,.43,0,.61.09.59.56,0,.7,0,1.41,0,2.35-1.58-1.8-3.53-1.09-5.31-1.21-.76,0-1.76-.25-2.23.14s-.12,1.44-.15,2.2,0,1.54,0,2.31c0,.29,0,.58.42.57a41.69,41.69,0,0,0,5.12-.13,4,4,0,0,0,1.61-.66v3.1c-2.16-1.14-4.47-.56-6.71-.7-.34,0-.44.13-.44.45,0,2.22,0,4.45,0,6.67,0,.44.21.51.58.51,1.62,0,3.24,0,4.87,0A6.18,6.18,0,0,0,92.79,33.47Z" transform="translate(-2 -11.74)" style="fill:#2d4355"/><path d="M103.31,36.07a5.41,5.41,0,0,0,1.07-3.77c0-3.41,0-6.83,0-10.24a5.14,5.14,0,0,0-1.17-3.67h4.11c2.27,0,4.55,0,6.83,0,.57,0,.73.17.69.72s0,1.3,0,2c-2.23-1.56-4.73-1-7.12-1.11-.33,0-.46.11-.46.44,0,1.48,0,3,0,4.44,0,.3,0,.49.41.48,1.51,0,3,0,4.52-.07a3.56,3.56,0,0,0,2.06-.74v3c-2.1-1.17-4.41-.46-6.64-.65-.25,0-.36.1-.35.35,0,2.25-.12,4.5.09,6.74a3.47,3.47,0,0,0,1,2.07Z" transform="translate(-2 -11.74)" style="fill:#2d4355"/><path d="M31.13,24.36c-4.58-.34-9,1.48-13.22,4.1a47.3,47.3,0,0,1-7.82,4.33,5.92,5.92,0,0,1-6.51-1.11A5.15,5.15,0,0,1,2,27.78c0-.57.27-.63.7-.49a4,4,0,0,1,2.68,2.2c1,2.49,2.3,3.56,5.6,1.75,2.47-1.36,4.64-3.17,7-4.75a21,21,0,0,1,8.89-3.92,22.59,22.59,0,0,1,10.1.88c.44.14,1.22.2,1.06.86s-.84.44-1.34.38A36.35,36.35,0,0,0,31.13,24.36Z" transform="translate(-2 -11.74)" style="fill:#2d4456"/><path d="M51.74,24a9.76,9.76,0,0,1-.85,2.82.93.93,0,0,1-1.26.54c-.68-.22-1.35-.44-2-.69-.45-.17-.72-.13-.94.36s-.14.82.33,1l5.23,2.47a22.7,22.7,0,0,1,3.66,2c.39.28,1,.49.66,1.18a1.56,1.56,0,0,1-1.84,1,4.92,4.92,0,0,1-1.18-.67,69,69,0,0,0-8-4.77c-2.15-1.19-2.27-1.74-1.07-3.89.41-.72.86-1.05,1.71-.71s1.57.48,2.34.78c.44.18.59,0,.76-.34a1.73,1.73,0,0,0-.56-2.54c-.68-.56-1.42-1.05-2.11-1.59-.24-.19-.56-.43-.36-.78s.53,0,.75,0a13.4,13.4,0,0,1,3.8,2.08A2,2,0,0,1,51.74,24Z" transform="translate(-2 -11.74)" style="fill:#2d4456"/><path d="M95.2,18.45h5.06c-1.44,1.5-1,3.33-1,5.08,0,2.9,0,5.8,0,8.7,0,1.32,0,2.61,1.09,3.72h-5c1.38-1.47,1-3.24,1-4.93,0-2.87,0-5.74,0-8.61C96.36,21,96.4,19.62,95.2,18.45Z" transform="translate(-2 -11.74)" style="fill:#2d4456"/><path d="M45,19.3c-4.19.28-7.91-2.08-9.09-5.48a3.38,3.38,0,0,1-.25-1.33c0-.3,0-.7.39-.75a.68.68,0,0,1,.68.54,5.37,5.37,0,0,0,1.91,2.56,10.68,10.68,0,0,0,8.13,2,11.39,11.39,0,0,0,3.33-1.65c.36-.19.82-.65,1.13-.29s-.17.78-.41,1.1A7.62,7.62,0,0,1,45,19.3Z" transform="translate(-2 -11.74)" style="fill:#2d4456"/><path d="M12,40.05c.5-.27,1-.54,1.5-.79.15-.07.33-.16.48,0s.08.33,0,.47A11.71,11.71,0,0,1,10,44.52c-.72.49-1.23-.07-1.7-.52s-1-1.09-.53-1.87S9,40.32,9.58,39.43a58.83,58.83,0,0,1,4-5.3,7,7,0,0,1,1.55-1.32c.22-.14.48-.4.75-.11s0,.49-.08.71a47.87,47.87,0,0,1-2.56,4.22c-.48.73-1,1.47-1.42,2.22-.08.08-.18.17-.06.27S11.91,40.08,12,40.05Z" transform="translate(-2 -11.74)" style="fill:#2d4456"/><path d="M97,43c0,1.27-.44,2.52.37,3.68H95.63c.38-2,1-4.12-.59-6a2.12,2.12,0,0,1,2.32.76A23.09,23.09,0,0,0,100,44.16c0-1.19.44-2.43-.56-3.55h2c-1.16,2-.29,4.25-.69,6.47Z" transform="translate(-2 -11.74)" style="fill:#2d4456"/><path d="M130.86,42.89c.1,1.39-.25,2.61.42,3.83h-1.62c.58-1.46.26-3,.32-4.47,0-.62-.57-1-.9-1.5a2,2,0,0,1,2.19.61A28.09,28.09,0,0,0,134,44.21c0-1.22.37-2.45-.54-3.58h1.92c-1.08,2-.26,4.25-.64,6.44C133.47,45.7,132.23,44.38,130.86,42.89Z" transform="translate(-2 -11.74)" style="fill:#2d4456"/><path d="M66.57,42.87c.11,1.45-.21,2.69.43,3.86a5.06,5.06,0,0,1-1.5,0c.16-2,.88-4.09-.63-6a1.93,1.93,0,0,1,2.18.65c.8,1,1.72,1.88,2.77,3-.08-1.44.31-2.68-.61-3.8h1.91c-1.1,2-.27,4.24-.65,6.44Z" transform="translate(-2 -11.74)" style="fill:#2d4456"/><path d="M89.72,43.78c.42-.19.69-.28.93-.42A1.06,1.06,0,0,0,91.16,42c-.25-.61-.86-.66-1.45-.65a.26.26,0,0,0-.27.27,35.31,35.31,0,0,0,.13,5.13,6.19,6.19,0,0,1-1.49,0,27.63,27.63,0,0,0,0-6,14.27,14.27,0,0,1,3,.09,1.51,1.51,0,0,1,1.34,1.15,1.39,1.39,0,0,1-.76,1.57c-.53.29-.41.53-.09.88a16.64,16.64,0,0,0,2.26,2.5C91.39,47,91.05,44.87,89.72,43.78Z" transform="translate(-2 -11.74)" style="fill:#2d4456"/><path d="M127.43,43.62a3,3,0,0,1-3.05,3.11,3,3,0,0,1-3.06-3,3.23,3.23,0,0,1,3-3.12A3,3,0,0,1,127.43,43.62Zm-1.31.21a2.61,2.61,0,0,0-.28-1.39,1.56,1.56,0,0,0-2.81-.16,2.72,2.72,0,0,0,.14,3,1.52,1.52,0,0,0,2.48,0A2.19,2.19,0,0,0,126.12,43.83Z" transform="translate(-2 -11.74)" style="fill:#2d4456"/><path d="M85.35,45.71c.18.78,0,1.16-.89,1.09-1.16-.07-2.32,0-3.45,0a15,15,0,0,0,0-6c1.25,0,2.57,0,3.88,0,.64,0,.19.61.36,1a3.16,3.16,0,0,0-1.65-.43c-1.13,0-1.09,0-1.13,1.16,0,.66.2.82.82.79,1,0,1,0,1.67-.33v1.22A3.87,3.87,0,0,0,82.88,44c-.25,0-.32.13-.36.37-.27,1.51,0,1.77,1.44,1.76A4.55,4.55,0,0,0,85.35,45.71Z" transform="translate(-2 -11.74)" style="fill:#2d4456"/><path d="M139.71,40.47c1.07,2.05,1.78,4.21,3,6.26-.54,0-1,0-1.47,0s-.44-.06-.46-.46a1.48,1.48,0,0,0-2.17-1.37c-.5.21-.51.82-.65,1.3,0,.19.21.5-.15.55a4.66,4.66,0,0,1-1.18,0c-.15,0,0-.16,0-.25a51.53,51.53,0,0,0,2.79-5.62A4.09,4.09,0,0,1,139.71,40.47Zm.37,3.86a4,4,0,0,0-.64-1.34,4.1,4.1,0,0,0-.54,1.34Z" transform="translate(-2 -11.74)" style="fill:#2d4456"/><path d="M102.75,46.78c1.32-2,2-4.2,3.17-6.3,1.06,2.09,1.79,4.24,3,6.25-.26,0-.47,0-.68,0-.62,0-1.35.27-1.34-.89,0-1-.81-1-1.59-1s-1,.58-1,1C104.28,47.2,103.43,46.7,102.75,46.78Zm3.56-2.5-.57-1.44-.69,1.5A3.5,3.5,0,0,0,106.31,44.28Z" transform="translate(-2 -11.74)" style="fill:#2d4456"/><path d="M111.47,46.74c.52-1.63.18-3.29.28-4.92,0-.33-.17-.35-.43-.37a2.21,2.21,0,0,0-1.36.39c-.31-1.19-.29-1.21.86-1.21h3c1.18,0,1.18,0,1.11,1.18-.23.07-.36-.11-.53-.19-1-.45-1.36-.23-1.31.8.06,1.44-.27,2.9.34,4.32A9.08,9.08,0,0,1,111.47,46.74Z" transform="translate(-2 -11.74)" style="fill:#2d4456"/><path d="M74.87,46.73c.7-1.65.32-3.31.42-4.95,0-.27-.16-.31-.38-.32a2.12,2.12,0,0,0-1.53.43c-.25-1.26-.25-1.26.94-1.26h3c1.11,0,1.11,0,1,1.16-.25.1-.38-.15-.57-.22-1-.36-1.3-.18-1.3.9V44.6a3.19,3.19,0,0,0,.44,2.13Z" transform="translate(-2 -11.74)" style="fill:#2d4456"/><path d="M60.05,46.75a10.71,10.71,0,0,0,.13-6h1.7a19.55,19.55,0,0,0,.1,6Z" transform="translate(-2 -11.74)" style="fill:#2d4456"/><path d="M145.05,40.61h1.39c-.42,1.63-.12,3.28-.2,4.92,0,.33.21.33.45.35a4,4,0,0,0,1.93-.37c.16.83-.1,1.16-1,1.09s-1.82,0-2.66,0C145.13,44.57,145.09,42.6,145.05,40.61Z" transform="translate(-2 -11.74)" style="fill:#2d4456"/><path d="M117.38,40.72H119a22.75,22.75,0,0,0,.09,6h-1.86A12.08,12.08,0,0,0,117.38,40.72Z" transform="translate(-2 -11.74)" style="fill:#2d4355"/><path d="M41.3,22c-.55-.39-1-.72-1.47-1-.29-.19-.65-.37-.94-.09s.08.56.19.83.42.4.16.66-.5,0-.7-.1a2.75,2.75,0,0,1-1.47-2,.88.88,0,0,1,.75-1.13C39.06,18.92,41.13,20.51,41.3,22Z" transform="translate(-2 -11.74)" style="fill:#2d4456"/><path d="M17.37,40.35l-.11,0s0,0-.06,0a.31.31,0,0,1,.12-.05S17.35,40.33,17.37,40.35Z" transform="translate(-2 -11.74)" style="fill:#fefefe"/><path d="M12,40.05c-.07,0-.19.1-.22.07s0-.19.06-.27Z" transform="translate(-2 -11.74)" style="fill:#fefefe"/></g></svg>